<svg width="17" height="18" viewBox="0 0 17 18" fill="none" xmlns="http://www.w3.org/2000/svg">
<path d="M16.2198 15.7629C15.7055 15.2712 15.2553 14.7074 14.8811 14.0868C14.4727 13.2302 14.2279 12.2947 14.1611 11.3353V8.50933C14.1647 7.00233 13.655 5.54581 12.7279 4.41343C11.8009 3.28106 10.5202 2.55077 9.12648 2.35979V1.62184C9.12648 1.4193 9.05146 1.22505 8.91794 1.08183C8.78441 0.938614 8.60331 0.858154 8.41448 0.858154C8.22564 0.858154 8.04454 0.938614 7.91102 1.08183C7.77749 1.22505 7.70248 1.4193 7.70248 1.62184V2.37123C6.32128 2.57598 5.05606 3.31068 4.14116 4.43925C3.22626 5.56782 2.72367 7.01378 2.72648 8.50933V11.3353C2.65968 12.2947 2.41489 13.2302 2.00648 14.0868C1.63895 14.706 1.19592 15.2697 0.689146 15.7629C0.632256 15.8165 0.586661 15.8825 0.555395 15.9565C0.524129 16.0305 0.507908 16.1107 0.507812 16.192V16.97C0.507812 17.1217 0.564003 17.2672 0.664022 17.3745C0.764042 17.4817 0.899697 17.542 1.04115 17.542H15.8678C16.0093 17.542 16.1449 17.4817 16.2449 17.3745C16.345 17.2672 16.4011 17.1217 16.4011 16.97V16.192C16.401 16.1107 16.3848 16.0305 16.3536 15.9565C16.3223 15.8825 16.2767 15.8165 16.2198 15.7629ZM1.61715 16.3979C2.11336 15.8837 2.55027 15.3076 2.91848 14.6818C3.43294 13.6472 3.73311 12.5057 3.79848 11.3353V8.50933C3.77733 7.83891 3.88217 7.17077 4.10677 6.54472C4.33137 5.91866 4.67112 5.34748 5.10581 4.8652C5.5405 4.38291 6.06122 3.99938 6.63698 3.73744C7.21273 3.4755 7.83174 3.34051 8.45715 3.34051C9.08255 3.34051 9.70156 3.4755 10.2773 3.73744C10.8531 3.99938 11.3738 4.38291 11.8085 4.8652C12.2432 5.34748 12.5829 5.91866 12.8075 6.54472C13.0321 7.17077 13.137 7.83891 13.1158 8.50933V11.3353C13.1812 12.5057 13.4814 13.6472 13.9958 14.6818C14.364 15.3076 14.8009 15.8837 15.2971 16.3979H1.61715Z" fill="#2F2F2F"/>
</svg>
