<svg width="22" height="22" viewBox="0 0 22 22" fill="none" xmlns="http://www.w3.org/2000/svg">
<g clip-path="url(#clip0_23_108)">
<path d="M9.9796 3.08603C11.3034 3.08482 12.5977 3.47625 13.699 4.21081C14.8002 4.94536 15.6588 5.99003 16.1663 7.21267C16.6737 8.43531 16.8071 9.78097 16.5495 11.0794C16.292 12.3779 15.6552 13.5708 14.7196 14.5073C13.784 15.4437 12.5917 16.0816 11.2934 16.3403C9.99522 16.599 8.64944 16.4669 7.42634 15.9606C6.20324 15.4543 5.15778 14.5966 4.42222 13.496C3.68666 12.3955 3.29405 11.1014 3.29405 9.7777C3.30207 8.00649 4.00883 6.31002 5.2607 5.057C6.51258 3.80398 8.2084 3.09567 9.9796 3.08603M9.9796 1.83325C8.40834 1.83325 6.87236 2.29919 5.56591 3.17213C4.25945 4.04508 3.24119 5.28583 2.63989 6.73749C2.0386 8.18915 1.88127 9.78651 2.18781 11.3276C2.49435 12.8687 3.25098 14.2842 4.36203 15.3953C5.47308 16.5063 6.88865 17.263 8.42972 17.5695C9.97079 17.876 11.5682 17.7187 13.0198 17.1174C14.4715 16.5161 15.7122 15.4979 16.5852 14.1914C17.4581 12.8849 17.9241 11.349 17.9241 9.7777C17.9241 7.6707 17.087 5.65 15.5972 4.16013C14.1073 2.67025 12.0866 1.83325 9.9796 1.83325Z" fill="#949494"/>
<path d="M21.3888 20.3438L16.8849 15.8093L16.0171 16.671L20.521 21.2054C20.5776 21.2624 20.6448 21.3077 20.7189 21.3387C20.793 21.3697 20.8724 21.3858 20.9527 21.3861C21.033 21.3863 21.1126 21.3708 21.1869 21.3403C21.2612 21.3099 21.3287 21.2651 21.3857 21.2085C21.4427 21.1519 21.488 21.0847 21.5189 21.0106C21.5499 20.9365 21.566 20.8571 21.5663 20.7768C21.5666 20.6965 21.5511 20.6169 21.5206 20.5426C21.4901 20.4683 21.4453 20.4007 21.3888 20.3438Z" fill="#949494"/>
</g>
<defs>
<clipPath id="clip0_23_108">
<rect width="22" height="22" fill="white"/>
</clipPath>
</defs>
</svg>
