<svg width="19" height="17" viewBox="0 0 19 17" fill="none" xmlns="http://www.w3.org/2000/svg">
<path d="M9.59976 3.13132L8.79312 2.34518C6.89968 0.499857 3.42783 1.13666 2.17454 3.45665C1.58615 4.54784 1.45339 6.12331 2.5278 8.13397C3.56283 10.07 5.71615 12.3889 9.59976 14.9147C13.4834 12.3889 15.6356 10.07 16.6717 8.13397C17.7461 6.12224 17.6145 4.54784 17.025 3.45665C15.7717 1.13666 12.2998 0.498791 10.4064 2.34412L9.59976 3.13132ZM9.59976 16.2001C-7.65039 5.39264 4.28848 -3.04253 9.40176 1.41932C9.46926 1.47799 9.53564 1.53879 9.59976 1.60172C9.66324 1.53884 9.72929 1.47835 9.79777 1.42039C14.9099 -3.04466 26.8499 5.39157 9.59976 16.2001Z" fill="#2F2F2F"/>
</svg>
