<svg width="17" height="17" viewBox="0 0 17 17" fill="none" xmlns="http://www.w3.org/2000/svg">
<path d="M15.5087 7.7859C15.5115 8.87912 15.2561 9.95756 14.7632 10.9334C14.1788 12.1027 13.2804 13.0862 12.1686 13.7738C11.0568 14.4613 9.77551 14.8258 8.46828 14.8263C7.37506 14.8291 6.29663 14.5737 5.32081 14.0808L0.599609 15.6546L2.17334 10.9334C1.68046 9.95756 1.42504 8.87912 1.42789 7.7859C1.4284 6.47867 1.79284 5.1974 2.4804 4.08559C3.16797 2.97379 4.15149 2.07537 5.32081 1.49096C6.29663 0.998076 7.37506 0.742657 8.46828 0.745507H8.88243C10.6089 0.840753 12.2395 1.56945 13.4621 2.79207C14.6847 4.0147 15.4134 5.64533 15.5087 7.37176V7.7859Z" stroke="#2F2F2F" stroke-linecap="round" stroke-linejoin="round"/>
</svg>
