<svg width="16" height="17" viewBox="0 0 16 17" fill="none" xmlns="http://www.w3.org/2000/svg">
<path d="M7.9796 2.08603C9.30335 2.08482 10.5977 2.47625 11.699 3.21081C12.8002 3.94536 13.6588 4.99003 14.1663 6.21267C14.6737 7.43531 14.8071 8.78097 14.5495 10.0794C14.292 11.3779 13.6552 12.5708 12.7196 13.5073C11.784 14.4437 10.5917 15.0816 9.29344 15.3403C7.99522 15.599 6.64944 15.4669 5.42634 14.9606C4.20324 14.4543 3.15778 13.5966 2.42222 12.496C1.68666 11.3955 1.29405 10.1014 1.29405 8.7777C1.30207 7.00649 2.00883 5.31002 3.2607 4.057C4.51258 2.80398 6.2084 2.09567 7.9796 2.08603ZM7.9796 0.833252C6.40834 0.833252 4.87236 1.29919 3.56591 2.17213C2.25945 3.04508 1.24119 4.28583 0.639895 5.73749C0.0385986 7.18915 -0.118728 8.78651 0.18781 10.3276C0.494348 11.8687 1.25098 13.2842 2.36203 14.3953C3.47308 15.5063 4.88865 16.263 6.42972 16.5695C7.97079 16.876 9.56815 16.7187 11.0198 16.1174C12.4715 15.5161 13.7122 14.4979 14.5852 13.1914C15.4581 11.8849 15.9241 10.349 15.9241 8.7777C15.9241 6.6707 15.087 4.65 13.5972 3.16013C12.1073 1.67025 10.0866 0.833252 7.9796 0.833252Z" fill="#949494"/>
</svg>
