<svg width="14" height="14" viewBox="0 0 14 14" fill="none" xmlns="http://www.w3.org/2000/svg">
<g clip-path="url(#clip0_397_1601)">
<path d="M7 8.75C7.9665 8.75 8.75 7.9665 8.75 7C8.75 6.0335 7.9665 5.25 7 5.25C6.0335 5.25 5.25 6.0335 5.25 7C5.25 7.9665 6.0335 8.75 7 8.75Z" stroke="#2F2F2F" stroke-linecap="round" stroke-linejoin="round"/>
<path d="M11.3173 8.75004C11.2397 8.92598 11.2165 9.12115 11.2508 9.31038C11.2851 9.49962 11.3753 9.67423 11.5098 9.81171L11.5448 9.84671C11.6533 9.95506 11.7393 10.0837 11.7981 10.2254C11.8568 10.367 11.887 10.5188 11.887 10.6721C11.887 10.8254 11.8568 10.9773 11.7981 11.1189C11.7393 11.2605 11.6533 11.3892 11.5448 11.4975C11.4365 11.606 11.3078 11.6921 11.1662 11.7508C11.0245 11.8095 10.8727 11.8397 10.7194 11.8397C10.5661 11.8397 10.4143 11.8095 10.2726 11.7508C10.131 11.6921 10.0023 11.606 9.89398 11.4975L9.85898 11.4625C9.72151 11.3281 9.54689 11.2378 9.35766 11.2035C9.16843 11.1692 8.97326 11.1924 8.79732 11.27C8.62479 11.344 8.47764 11.4668 8.374 11.6233C8.27035 11.7798 8.21473 11.9632 8.21398 12.1509V12.25C8.21398 12.5595 8.09107 12.8562 7.87228 13.075C7.65348 13.2938 7.35674 13.4167 7.04732 13.4167C6.7379 13.4167 6.44115 13.2938 6.22236 13.075C6.00357 12.8562 5.88065 12.5595 5.88065 12.25V12.1975C5.87614 12.0045 5.81364 11.8172 5.70128 11.6601C5.58893 11.503 5.43191 11.3834 5.25065 11.3167C5.07471 11.2391 4.87954 11.2159 4.69031 11.2502C4.50108 11.2845 4.32646 11.3747 4.18898 11.5092L4.15398 11.5442C4.04563 11.6527 3.91696 11.7387 3.77533 11.7974C3.6337 11.8562 3.48189 11.8864 3.32857 11.8864C3.17525 11.8864 3.02344 11.8562 2.8818 11.7974C2.74017 11.7387 2.6115 11.6527 2.50315 11.5442C2.39468 11.4359 2.30863 11.3072 2.24991 11.1656C2.1912 11.0239 2.16098 10.8721 2.16098 10.7188C2.16098 10.5655 2.1912 10.4137 2.24991 10.272C2.30863 10.1304 2.39468 10.0017 2.50315 9.89337L2.53815 9.85837C2.67263 9.72089 2.76284 9.54628 2.79715 9.35705C2.83146 9.16782 2.8083 8.97265 2.73065 8.79671C2.65671 8.62418 2.53393 8.47703 2.37742 8.37339C2.22092 8.26974 2.03753 8.21412 1.84982 8.21337H1.75065C1.44123 8.21337 1.14449 8.09046 0.925693 7.87167C0.706901 7.65287 0.583984 7.35613 0.583984 7.04671C0.583984 6.73729 0.706901 6.44054 0.925693 6.22175C1.14449 6.00296 1.44123 5.88004 1.75065 5.88004H1.80315C1.99623 5.87552 2.18349 5.81303 2.34058 5.70067C2.49766 5.58832 2.61732 5.4313 2.68398 5.25004C2.76163 5.0741 2.7848 4.87893 2.75049 4.6897C2.71618 4.50047 2.62596 4.32585 2.49148 4.18837L2.45648 4.15337C2.34801 4.04502 2.26196 3.91635 2.20325 3.77472C2.14454 3.63309 2.11432 3.48128 2.11432 3.32796C2.11432 3.17464 2.14454 3.02282 2.20325 2.88119C2.26196 2.73956 2.34801 2.61089 2.45648 2.50254C2.56484 2.39407 2.69351 2.30802 2.83514 2.2493C2.97677 2.19059 3.12858 2.16037 3.2819 2.16037C3.43522 2.16037 3.58703 2.19059 3.72866 2.2493C3.8703 2.30802 3.99897 2.39407 4.10732 2.50254L4.14232 2.53754C4.2798 2.67202 4.45441 2.76223 4.64364 2.79654C4.83287 2.83085 5.02804 2.80769 5.20398 2.73004H5.25065C5.42318 2.6561 5.57033 2.53331 5.67397 2.37681C5.77762 2.22031 5.83324 2.03692 5.83398 1.84921V1.75004C5.83398 1.44062 5.9569 1.14388 6.17569 0.925083C6.39449 0.70629 6.69123 0.583374 7.00065 0.583374C7.31007 0.583374 7.60682 0.70629 7.82561 0.925083C8.0444 1.14388 8.16732 1.44062 8.16732 1.75004V1.80254C8.16807 1.99025 8.22369 2.17364 8.32733 2.33015C8.43097 2.48665 8.57812 2.60943 8.75065 2.68337C8.92659 2.76102 9.12176 2.78419 9.31099 2.74988C9.50023 2.71557 9.67484 2.62535 9.81232 2.49087L9.84732 2.45587C9.95567 2.3474 10.0843 2.26135 10.226 2.20264C10.3676 2.14393 10.5194 2.11371 10.6727 2.11371C10.8261 2.11371 10.9779 2.14393 11.1195 2.20264C11.2611 2.26135 11.3898 2.3474 11.4982 2.45587C11.6066 2.56423 11.6927 2.6929 11.7514 2.83453C11.8101 2.97616 11.8403 3.12797 11.8403 3.28129C11.8403 3.43461 11.8101 3.58642 11.7514 3.72805C11.6927 3.86969 11.6066 3.99836 11.4982 4.10671L11.4632 4.14171C11.3287 4.27919 11.2385 4.4538 11.2041 4.64303C11.1698 4.83226 11.193 5.02743 11.2707 5.20337V5.25004C11.3446 5.42257 11.4674 5.56972 11.6239 5.67336C11.7804 5.77701 11.9638 5.83263 12.1515 5.83337H12.2507C12.5601 5.83337 12.8568 5.95629 13.0756 6.17508C13.2944 6.39388 13.4173 6.69062 13.4173 7.00004C13.4173 7.30946 13.2944 7.60621 13.0756 7.825C12.8568 8.04379 12.5601 8.16671 12.2507 8.16671H12.1982C12.0104 8.16746 11.827 8.22308 11.6705 8.32672C11.514 8.43036 11.3913 8.57751 11.3173 8.75004V8.75004Z" stroke="#2F2F2F" stroke-linecap="round" stroke-linejoin="round"/>
</g>
<defs>
<clipPath id="clip0_397_1601">
<rect width="14" height="14" fill="white"/>
</clipPath>
</defs>
</svg>
