<svg width="11" height="12" viewBox="0 0 11 12" fill="none" xmlns="http://www.w3.org/2000/svg">
<path d="M0.477803 4.50296L3.71573 4.03239L5.16317 1.09798C5.2027 1.01763 5.26774 0.952594 5.34808 0.913061C5.54957 0.813589 5.79443 0.896482 5.89517 1.09798L7.34261 4.03239L10.5805 4.50296C10.6698 4.51571 10.7514 4.5578 10.8139 4.62156C10.8895 4.69921 10.9311 4.80367 10.9297 4.912C10.9282 5.02032 10.8838 5.12364 10.8063 5.19926L8.46358 7.48328L9.01705 10.7085C9.03003 10.7835 9.02173 10.8606 8.99308 10.9312C8.96444 11.0017 8.91661 11.0628 8.855 11.1076C8.7934 11.1523 8.72049 11.1789 8.64454 11.1843C8.5686 11.1897 8.49265 11.1738 8.42532 11.1382L5.52917 9.61554L2.63302 11.1382C2.55395 11.1803 2.46213 11.1943 2.37414 11.179C2.15224 11.1408 2.00303 10.9304 2.04129 10.7085L2.59476 7.48328L0.252079 5.19926C0.188315 5.13677 0.146232 5.05516 0.133479 4.96589C0.0990467 4.74271 0.25463 4.53612 0.477803 4.50296Z" fill="#F4B319"/>
</svg>
